# xmcd
#
# Track frame offsets: 
#        150
#        19880
#        36372
#        50130
#        70422
#        87925
#        106825
#        121237
#        135977
#        157335
#
# Disc length: 2348 seconds
#
# Revision: 2
# Processed by: cddbd v1.5PL3 Copyright (c) Steve Scherf et al.
# Submitted via: ExactAudioCopy v0.90b4
#
DISCID=8a092a0a
DTITLE=Ronnie Milsap - Greatest Hits Volume 3
DYEAR=1900
DGENRE=Country
TTITLE0=L.A. To The Moon
TTITLE1=Happy, Happy Birthday Baby
TTITLE2=Snap Your Fingers
TTITLE3=Where Do The Nights Go
TTITLE4=Button Off My Shirt
TTITLE5=Quicksand
TTITLE6=Stranger Things Have Happened
TTITLE7=A Woman In Love
TTITLE8=How Do I Turn You On
TTITLE9=Prisoner Of The Highway
EXTD=
EXTT0=
EXTT1=
EXTT2=
EXTT3=
EXTT4=
EXTT5=
EXTT6=
EXTT7=
EXTT8=
EXTT9=
PLAYORDER=
